<?xml version="1.0" encoding="iso-8859-1"?>
<!-- Generator: Adobe Illustrator 19.0.0, SVG Export Plug-In . SVG Version: 6.00 Build 0)  -->
<svg version="1.1" id="Capa_1" xmlns="http://www.w3.org/2000/svg" xmlns:xlink="http://www.w3.org/1999/xlink" x="0px" y="0px"
	 viewBox="0 0 512.001 512.001" style="enable-background:new 0 0 512.001 512.001;" xml:space="preserve">
<g>
	<path fill="#888" d="M498.398,358.323h0.01H498.398z"/>
</g>
<g>
	<path fill="#888" d="M504.236,344.473l-88.943-37.481l88.949-37.526c4.713-1.99,7.759-6.582,7.758-11.7c-0.001-5.117-3.049-9.708-7.765-11.696
		l-93.275-39.307l93.281-39.355c4.714-1.99,7.76-6.582,7.759-11.699c-0.001-5.117-3.048-9.708-7.765-11.696L267.29,44.166
		c-7.175-3.025-15.405-3.025-22.58,0L134.726,90.513c-3.824,1.611-5.618,6.019-4.007,9.843c1.611,3.823,6.017,5.617,9.843,4.007
		l109.984-46.348c3.466-1.461,7.442-1.461,10.907,0l231.844,97.699l-231.839,97.811c-3.469,1.464-7.448,1.464-10.916,0
		L18.704,155.715l71.19-29.999c3.824-1.612,5.618-6.019,4.007-9.843c-1.612-3.823-6.016-5.618-9.843-4.007L7.764,144.015
		c-4.716,1.988-7.763,6.579-7.764,11.696c-0.001,5.117,3.045,9.709,7.76,11.699l93.28,39.355L7.765,246.07
		c-4.716,1.987-7.763,6.578-7.765,11.696s3.045,9.71,7.76,11.7l88.948,37.526L7.765,344.473c-4.716,1.988-7.764,6.578-7.765,11.696
		c-0.001,5.117,3.045,9.71,7.76,11.699l236.94,99.963c3.591,1.515,7.445,2.272,11.301,2.272c3.854,0,7.71-0.757,11.301-2.272
		l236.939-99.963c4.715-1.989,7.761-6.581,7.76-11.699S508.952,346.461,504.236,344.473z M261.46,453.984
		c-3.47,1.464-7.45,1.463-10.917,0L18.705,356.173l97.344-41.021L244.7,369.429c3.591,1.515,7.447,2.273,11.301,2.273
		c3.855,0,7.71-0.758,11.301-2.273l36.411-15.362c3.823-1.613,5.616-6.021,4.003-9.845c-1.613-3.823-6.018-5.616-9.845-4.003
		l-36.412,15.362c-3.469,1.464-7.448,1.464-10.916,0L18.704,257.77l101.678-42.847l124.318,52.448
		c3.591,1.515,7.447,2.273,11.301,2.273c3.854,0,7.71-0.758,11.301-2.273l124.319-52.448l101.678,42.847l-147.135,62.075
		c-3.823,1.613-5.616,6.021-4.003,9.845c1.613,3.823,6.02,5.616,9.845,4.003l43.948-18.541l97.344,41.021L261.46,453.984z"/>
</g>
</svg>
